<?xml version="1.0" encoding="utf-8"?>
<?xml-stylesheet type="text/xsl" href="rss1.xsl"?>
<rss version="2.0" xmlns:atom="http://www.w3.org/2005/Atom" xmlns:content="http://purl.org/rss/1.0/modules/content/" xmlns:dc="http://purl.org/dc/elements/1.1/" xmlns:media="http://search.yahoo.com/mrss/">
<channel>
 <title>Getty</title>
 <link>http://www.gettyimg.com/</link>
 <atom:link href="http://www.gettyimg.com/" rel="self" type="application/rss+xml" />

 
                <item>
                <title><![CDATA[【Music Videos】Au/Ra &amp; Alan Walker - Ghost [4K HEVC 10-bit / PCM 24-bit]]]></title>
                <link><![CDATA[https://sharemania.us/threads/au-ra-alan-walker-ghost-4k-hevc-10-bit-pcm-24-bit.221258/]]></link>
                <description><![CDATA[<article>
<blockquote class="messageText SelectQuoteContainer ugc baseHtml">
<b><img src="https://images2.imgbox.com/73/1c/Pytq9B0X_o.jpg" class="bbCodeImage LbImage" alt="[​IMG]" data-url="https://images2.imgbox.com/73/1c/Pytq9B0X_o.jpg" style=""> <br>
<br>
Genre: <span style="color: #0059b3">Electronic, Pop</span> <br>
Style: <span style="color: #0059b3">House, Dance-pop, Trap</span> <br>
Year: <span style="color: #0059b3">2019</span> <br>
Video Source: <span style="color: #0059b3">Apple Music, thanks CAPRiCE24</span><br>
Audio Source: <span style="color: #0059b3">Qobuz Hi-Res, thanks medicine</span></b><br>
<br>
"<b>Ghost</b>" is a song produced by British-Norwegian music producer and DJ Alan Walker and performed by Ibiza-Born Antiguan-German singer-songwriter Au/Ra, released on October 17, 2019. It's the second track of <i>Death Stranding: Timefall</i>. <i>Death Stranding: Timefall (Original Music from the World of Death Stranding)</i> is a soundtrack album for the 2019 action game, Death Stranding. Featuring eight songs from various artists, it was released on November 7, 2019 in digital stores, through RCA Records and Sony Interactive Entertainment. It was included in all special editions of the game.<br>
<br>
The reason why the Japanese game developers trusted Alan Walker and Au/Ra to feature their special soundtrack is not something casual. The abilities from both artists are undeniable and this record is the ultimate proof of that. ‘Ghost‘ is a pure commercial trap track that perfectly showcases the producer and singer’s unique abilities that brought them to the main gates of the electronic music scene. Taking a more commercial approach and distancing himself from his classic future bass sounds, Alan Walker still finds a way to adapt his style delivering a very solid production. He creates a rhythmic and melodic bass filling it with a more tragic and alarming sound that becomes the perfect companion for the deep vocals from Au/Ra. Just as she did in other projects like ‘Panic Room‘ with CamelPhat, the Antiguan singer takes the lead role to impact the listener with her voice and set the tone of the song.<br>
<br>
<b>Release Info</b><br>
The video track is from Apple Music (2160p HEVC 10-bit), with the intro removed.<br>
The PCM track is lossless (Qobuz Hi-Res 24-bit), synced with Adobe Audition.<br>
The timed lyrics are synced and edited to match the video track.<br>
Enable the subtitles to see the lyrics.<br>
<br>
<div class="ToggleTriggerAnchor bbCodeSpoilerContainer">
<button type="button" class="button bbCodeSpoilerButton ToggleTrigger Tooltip JsOnly" data-target="> .SpoilerTarget"><span>Spoiler: <span class="SpoilerTitle">Media Info</span></span></button>
<div class="SpoilerTarget bbCodeSpoilerText">
<div class="bbCodeBlock bbCodeCode">
<div class="type">Code:</div>
<pre>General
Unique ID                      : 247104176254422353535262477487353126047 (0xB9E688829F9065ED140702DEB5D45C9F)
Complete name                  : Au-Ra &amp; Alan Walker - Ghost.mkv
Format                         : Matroska
Format version                 : Version 4
File size                      : 514 MiB
Duration                       : 3 min 4 s
Overall bit rate               : 23.3 Mb/s
Encoded date                   : UTC 2023-05-21 20:25:40
Writing application            : mkvmerge v76.0 ('Celebration') 64-bit
Writing library                : libebml v1.4.4 + libmatroska v1.7.1

Video
ID                             : 1
Format                         : HEVC
Format/Info                    : High Efficiency Video Coding
Format profile                 : Main 10@L5@High
Codec ID                       : V_MPEGH/ISO/HEVC
Duration                       : 3 min 4 s
Bit rate                       : 20.9 Mb/s
Width                          : 3 544 pixels
Height                         : 2 160 pixels
Display aspect ratio           : 16:10
Frame rate mode                : Constant
Frame rate                     : 24.000 FPS
Color space                    : YUV
Chroma subsampling             : 4:2:0
Bit depth                      : 10 bits
Bits/(Pixel*Frame)             : 0.114
Stream size                    : 461 MiB (90%)
Default                        : Yes
Forced                         : No
Color range                    : Limited
Color primaries                : BT.709
Transfer characteristics       : BT.709
Matrix coefficients            : BT.709

Audio #1
ID                             : 2
Format                         : PCM
Format settings                : Little / Signed
Codec ID                       : A_PCM/INT/LIT
Duration                       : 3 min 4 s
Bit rate mode                  : Constant
Bit rate                       : 2 117 kb/s
Channel(s)                     : 2 channels
Sampling rate                  : 44.1 kHz
Frame rate                     : 25.001 FPS (1764 SPF)
Bit depth                      : 24 bits
Stream size                    : 46.7 MiB (9%)
Title                          : Lossless 24-bit
Language                       : English
Default                        : Yes
Forced                         : No

Audio #2
ID                             : 3
Format                         : AAC LC
Format/Info                    : Advanced Audio Codec Low Complexity
Codec ID                       : A_AAC-2
Duration                       : 3 min 4 s
Bit rate                       : 255 kb/s
Channel(s)                     : 2 channels
Channel layout                 : L R
Sampling rate                  : 48.0 kHz
Frame rate                     : 46.875 FPS (1024 SPF)
Compression mode               : Lossy
Delay relative to video        : 18 ms
Stream size                    : 5.61 MiB (1%)
Language                       : English
Default                        : No
Forced                         : No

Text
ID                             : 4
Format                         : UTF-8
Codec ID                       : S_TEXT/UTF8
Codec ID/Info                  : UTF-8 Plain Text
Duration                       : 2 min 51 s
Bit rate                       : 81 b/s
Frame rate                     : 0.339 FPS
Count of elements              : 58
Stream size                    : 1.70 KiB (0%)
Title                          : Lyrics
Language                       : English
Default                        : No
Forced                         : No
</pre>
</div></div>
</div><br>
<div class="bbCodeBlock bbCodeVfcHH HiddenContent">
<div class="attribution type">Hidden Content:</div>
<blockquote>You must reply before you can see the hidden data contained here.</blockquote>
</div>
<div class="messageTextEndMarker">&nbsp;</div>
</blockquote>
</article>]]></description>
                <author><![CDATA[ADHDerby]]></author>
                </item>

                
                <item>
                <title><![CDATA[【UPSCALED】Alan Walker &amp; Au/Ra - Somebody Like U [4K AI Upscale HEVC 10-bit / PCM 24-bit]]]></title>
                <link><![CDATA[https://sharemania.us/threads/alan-walker-au-ra-somebody-like-u-4k-ai-upscale-hevc-10-bit-pcm-24-bit.221259/]]></link>
                <description><![CDATA[<article>
<blockquote class="messageText SelectQuoteContainer ugc baseHtml">
<b><img src="https://images2.imgbox.com/35/f9/m2rcDygj_o.jpg" class="bbCodeImage LbImage" alt="[​IMG]" data-url="https://images2.imgbox.com/35/f9/m2rcDygj_o.jpg" style=""> <br>
<br>
Genre: <span style="color: #0059b3">Electronic, Pop</span><br>
Style: <span style="color: #0059b3">Electro House, Dance-pop</span> <br>
Year: <span style="color: #0059b3">2022</span><br>
Video Source: <span style="color: #0059b3">Apple Music, thanks Brungor</span><br>
Audio Source: <span style="color: #0059b3">Qobuz, thanks Danielo007</span></b><br>
<br>
"<b>Somebody Like U</b>" is a song produced by British-Norwegian music producer and DJ Alan Walker and Ibiza-Born Antiguan-German singer-songwriter Au/Ra, released on June 10, 2022. It's the second track from the Extended play <i>Walkerverse, Pt. I</i>, released on June 17, 2022. It was written by Mats Lie Skåre, Marcus Arnbekk, Fredrik Borch Olsen, Gunnar Greve, Øyvind Sauvik and Jamie Lou Stenzel. Produced by Alan Walker, Kasper and Gunnar Greve.<br>
<br>
The accompanying music video was directed by Kristian Berg.<br>
Alan Walker said: <i>"For the last few months, I have been traveling far and wide to surprise Walkers from all walks of life, with the aim of giving them something special, namely the pendants. I met some of you backstage, some on stage, and others while you were out doing normal everyday stuff. I was moved by your reactions! I am excited to show you the process alongside the seriously talented Au/Ra."</i><br>
<br>
<b>Release Info</b><br>
The video track is upscaled to 4K with Topaz Video AI and converted to HEVC 10-bit.<br>
The PCM track is lossless (Qobuz, HiRes 24-bit), synced with Adobe Audition.<br>
The timed lyrics are synced and edited to match the music video.<br>
Enable the subtitles to see the lyrics.<br>
<br>
<div class="ToggleTriggerAnchor bbCodeSpoilerContainer">
<button type="button" class="button bbCodeSpoilerButton ToggleTrigger Tooltip JsOnly" data-target="> .SpoilerTarget"><span>Spoiler: <span class="SpoilerTitle">Media Info</span></span></button>
<div class="SpoilerTarget bbCodeSpoilerText">
<div class="bbCodeBlock bbCodeCode">
<div class="type">Code:</div>
<pre>General
Unique ID                      : 29974430587169229086399199057930084267 (0x168CDD8724C6DA1732AC68A2BC4FDFAB)
Complete name                  : Alan Walker &amp; Au-Ra - Somebody Like U.mkv
Format                         : Matroska
Format version                 : Version 4
File size                      : 493 MiB
Duration                       : 3 min 10 s
Overall bit rate               : 21.7 Mb/s
Encoded date                   : UTC 2023-05-21 23:13:16
Writing application            : mkvmerge v76.0 ('Celebration') 64-bit
Writing library                : libebml v1.4.4 + libmatroska v1.7.1
Cover                          : Yes
Attachments                    : cover.jpg

Video
ID                             : 1
Format                         : HEVC
Format/Info                    : High Efficiency Video Coding
Format profile                 : Main 10@L5@Main
Codec ID                       : V_MPEGH/ISO/HEVC
Duration                       : 3 min 10 s
Bit rate                       : 19.4 Mb/s
Width                          : 3 840 pixels
Height                         : 2 160 pixels
Display aspect ratio           : 16:9
Frame rate mode                : Constant
Frame rate                     : 25.000 FPS
Color space                    : YUV
Chroma subsampling             : 4:2:0
Bit depth                      : 10 bits
Bits/(Pixel*Frame)             : 0.093
Stream size                    : 439 MiB (89%)
Default                        : Yes
Forced                         : No
Color range                    : Limited
Color primaries                : BT.709
Transfer characteristics       : BT.709
Matrix coefficients            : BT.709

Audio #1
ID                             : 2
Format                         : PCM
Format settings                : Little / Signed
Codec ID                       : A_PCM/INT/LIT
Duration                       : 3 min 10 s
Bit rate mode                  : Constant
Bit rate                       : 2 117 kb/s
Channel(s)                     : 2 channels
Sampling rate                  : 44.1 kHz
Frame rate                     : 25.000 FPS (1764 SPF)
Bit depth                      : 24 bits
Stream size                    : 48.0 MiB (10%)
Title                          : Lossless 24-bit
Language                       : English
Default                        : Yes
Forced                         : No

Audio #2
ID                             : 3
Format                         : AAC LC
Format/Info                    : Advanced Audio Codec Low Complexity
Codec ID                       : A_AAC-2
Duration                       : 3 min 10 s
Bit rate                       : 265 kb/s
Channel(s)                     : 2 channels
Channel layout                 : L R
Sampling rate                  : 48.0 kHz
Frame rate                     : 46.875 FPS (1024 SPF)
Compression mode               : Lossy
Stream size                    : 5.95 MiB (1%)
Language                       : English
Default                        : No
Forced                         : No

Text
ID                             : 4
Format                         : UTF-8
Codec ID                       : S_TEXT/UTF8
Codec ID/Info                  : UTF-8 Plain Text
Duration                       : 2 min 33 s
Bit rate                       : 56 b/s
Frame rate                     : 0.214 FPS
Count of elements              : 33
Stream size                    : 1.06 KiB (0%)
Title                          : Lyrics
Language                       : English
Default                        : No
Forced                         : No
</pre>
</div></div>
</div><br>
<div class="bbCodeBlock bbCodeVfcHH HiddenContent">
<div class="attribution type">Hidden Content:</div>
<blockquote>You must reply before you can see the hidden data contained here.</blockquote>
</div>
<div class="messageTextEndMarker">&nbsp;</div>
</blockquote>
</article>]]></description>
                <author><![CDATA[ADHDerby]]></author>
                </item>

                
                <item>
                <title><![CDATA[【News &amp; Announcements】Can anybody please help me with these songs? Thanks!]]></title>
                <link><![CDATA[https://sharemania.us/threads/can-anybody-please-help-me-with-these-songs-thanks.221260/]]></link>
                <description><![CDATA[<article>
<blockquote class="messageText SelectQuoteContainer ugc baseHtml">
Can anybody help me with these songs please and thank you.<br>
<br>
<a href="https://www.qobuz.com/au-en/album/your-style-kazaky/zku28s8pmujbc" target="_blank" class="externalLink" rel="nofollow">https://www.qobuz.com/au-en/album/your-style-kazaky/zku28s8pmujbc</a><br>
<br>
<a href="https://www.qobuz.com/au-en/album/milk-choc-kazaky/oupwibq3jjokb" target="_blank" class="externalLink" rel="nofollow">https://www.qobuz.com/au-en/album/milk-choc-kazaky/oupwibq3jjokb</a><br>
<br>
<a href="https://www.qobuz.com/au-en/album/i-like-it-part-1-kazaky/buwrec4eze2mc" target="_blank" class="externalLink" rel="nofollow">https://www.qobuz.com/au-en/album/i-like-it-part-1-kazaky/buwrec4eze2mc</a><br>
<br>
<a href="https://www.qobuz.com/au-en/album/i-like-it-part-2-kazaky/vgpzwam8pu1na" target="_blank" class="externalLink" rel="nofollow">https://www.qobuz.com/au-en/album/i-like-it-part-2-kazaky/vgpzwam8pu1na</a><br>
<br>
<a href="https://www.qobuz.com/au-en/album/push-kazaky/takx7ofake1pb" target="_blank" class="externalLink" rel="nofollow">https://www.qobuz.com/au-en/album/push-kazaky/takx7ofake1pb</a><br>
<br>
<a href="https://www.qobuz.com/au-en/album/inside-my-body-kazaky/vg3mx2ft7cvbc" target="_blank" class="externalLink" rel="nofollow">https://www.qobuz.com/au-en/album/inside-my-body-kazaky/vg3mx2ft7cvbc</a><br>
<br>
<a href="https://www.qobuz.com/au-en/album/we-should-be-like-no-one-else-kazaky/zpqndwoh8yfla" target="_blank" class="externalLink" rel="nofollow">https://www.qobuz.com/au-en/album/we-should-be-like-no-one-else-kazaky/zpqndwoh8yfla</a><br>
<br>
<a href="https://www.qobuz.com/au-en/album/face-me-krivda-featuring-gasart/z75xb2svf7ulc" target="_blank" class="externalLink" rel="nofollow">https://www.qobuz.com/au-en/album/face-me-krivda-featuring-gasart/z75xb2svf7ulc</a><br>
<br>
<a href="https://www.qobuz.com/au-en/album/heavens-tears-krivda/l8zw11f5ymaxb" target="_blank" class="externalLink" rel="nofollow">https://www.qobuz.com/au-en/album/heavens-tears-krivda/l8zw11f5ymaxb</a>
<div class="messageTextEndMarker">&nbsp;</div>
</blockquote>
</article>]]></description>
                <author><![CDATA[Edbeby]]></author>
                </item>

                
                <item>
                <title><![CDATA[【Requests】[REQ VID] - M83 live Corona Capital Guadalajara 2023]]></title>
                <link><![CDATA[https://sharemania.us/threads/m83-live-corona-capital-guadalajara-2023.221257/]]></link>
                <description><![CDATA[<article>
<blockquote class="messageText SelectQuoteContainer ugc baseHtml">
Pretty pretty please, thanks.
<div class="messageTextEndMarker">&nbsp;</div>
</blockquote>
</article>]]></description>
                <author><![CDATA[Universe87]]></author>
                </item>

                </channel></rss>